<svg width="49" height="31" viewBox="0 0 49 31" fill="none" xmlns="http://www.w3.org/2000/svg">
<path d="M41.7359 29.8302C39.0411 29.7678 36.9074 27.5444 36.9702 24.8641C37.033 22.1839 39.2685 20.0617 41.9633 20.1242C44.6581 20.1867 46.7918 22.4101 46.729 25.0903C46.6662 27.7706 44.4307 29.8927 41.7359 29.8302Z" stroke="white" stroke-width="2" stroke-miterlimit="10"/>
<path d="M10.4377 29.8307C7.74211 29.8307 5.55694 27.6574 5.55694 24.9764C5.55694 22.2954 7.74211 20.1221 10.4377 20.1221C13.1332 20.1221 15.3184 22.2954 15.3184 24.9764C15.3184 27.6574 13.1332 29.8307 10.4377 29.8307Z" stroke="white" stroke-width="2" stroke-miterlimit="10"/>
<path d="M32.841 24.8726C32.8438 23.7218 33.0749 22.5828 33.5212 21.5209C33.9675 20.4591 34.6202 19.4954 35.4418 18.685C38.909 15.2508 44.533 15.2508 48.0001 18.685" stroke="white" stroke-width="2" stroke-miterlimit="10" stroke-linecap="round" stroke-linejoin="round"/>
<path d="M1.25815 24.8724C1.25815 20.0145 5.21726 16.0776 10.1015 16.0776C14.9858 16.0776 18.944 20.0154 18.944 24.8732" stroke="white" stroke-width="2" stroke-miterlimit="10" stroke-linecap="round" stroke-linejoin="round"/>
<path d="M20.2079 6.02637H3.78503V11.0527H20.2079V6.02637Z" stroke="white" stroke-width="2" stroke-miterlimit="10" stroke-linecap="round" stroke-linejoin="round"/>
<path d="M42.9474 16.078L35.367 1H30.3133" stroke="white" stroke-width="2" stroke-miterlimit="10" stroke-linecap="round" stroke-linejoin="round"/>
<path d="M32.8409 24.9766H18.9439" stroke="white" stroke-width="2" stroke-miterlimit="10" stroke-linecap="round" stroke-linejoin="round"/>
<path d="M20.2079 11.0518C20.2079 11.0518 25.2615 29.8991 35.367 11.0518" stroke="white" stroke-width="2" stroke-miterlimit="10" stroke-linecap="round" stroke-linejoin="round"/>
<path d="M3.78479 11.0518C3.78479 11.0518 -0.00586883 17.3342 1.25798 24.8728" stroke="white" stroke-width="2" stroke-miterlimit="10" stroke-linecap="round" stroke-linejoin="round"/>
</svg>
